g polySurface1
v 0.8561508 0.885381 -0.4018497
v 0.9895238 0.885381 -0.3712608
v 1.102592 0.885381 -0.2841508
v 0.8561507 0.8853809 0.4018497
v 1.178142 0.885381 -0.1537813
v 0 0.8739181 -0.4018497
v 1.178142 0.885381 0.1537813
v 1.204672 0.885381 -4.64395E-09
v 0.9895239 0.8853809 0.3712608
v 1.102592 0.8853809 0.2841507
v 0 0.8739181 0.03048834
v 0 0.8739181 0.4018497
v -0.8561507 0.8853809 0.4018497
v -0.8561508 0.885381 -0.4018497
v -1.102592 0.885381 -0.2841508
v -0.9895238 0.885381 -0.3712608
v -1.178142 0.885381 -0.1537813
v -1.178142 0.885381 0.1537813
v -1.204672 0.885381 -4.64395E-09
v -0.9895239 0.8853809 0.3712608
v -1.102592 0.8853809 0.2841507
v 0.1229154 -0.4707722 0.4018497
v 0.1229154 -0.06193541 0.4018497
v 0.1691786 -0.01567229 0.4018497
v 0.1988814 0.04262269 0.4018497
v 0.2091161 0.1072431 0.4018497
v 0.8561507 -0.8739181 0.4018497
v 0.1988812 0.1718636 0.4018497
v 0 -0.885381 0.4018497
v 0.06462046 -0.4707725 0.4018497
v 0 -0.4707725 0.4018497
v -0.06462046 -0.4707725 0.4018497
v -0.8561507 -0.8739181 0.4018497
v -0.1229154 -0.4707722 0.4018497
v -0.1691785 -0.01567229 0.4018497
v -0.1988813 0.04262269 0.4018497
v -0.1229154 -0.06193541 0.4018497
v -0.2091161 0.1072431 0.4018497
v -0.1988813 0.1718636 0.4018497
v -0.1691785 0.2301585 0.4018497
v 0 0.8739181 0.4018497
v 0.1691785 0.2301585 0.4018497
v -0.1229154 0.2764217 0.4018497
v 0.1229153 0.2764216 0.4018497
v -0.06462044 0.3061244 0.4018497
v 0.06462042 0.3061243 0.4018497
v -6.232145E-09 0.3163593 0.4018497
v 0 0.3163593 0.4018497
v 0.8561507 0.8853809 0.4018497
v -0.8561507 0.8853809 0.4018497
v 0.9895239 0.8853809 0.3712608
v -0.9895239 0.8853809 0.3712608
v 0.9895239 -0.8739181 0.3712608
v -0.9895239 -0.8739181 0.3712608
v 1.102592 0.8853809 0.2841507
v -1.102592 0.8853809 0.2841507
v 1.102592 -0.8739181 0.2841508
v -1.102592 -0.8739181 0.2841508
v 1.178142 0.885381 0.1537813
v -1.178142 0.885381 0.1537813
v 1.178142 -0.8739181 0.1537813
v -1.178142 -0.8739181 0.1537813
v 1.204672 0.885381 -4.64395E-09
v -1.204672 0.885381 -4.64395E-09
v 1.204672 -0.8739181 -4.643951E-09
v -1.204672 -0.8739181 -4.643951E-09
v 1.178142 0.885381 -0.1537813
v -1.178142 0.885381 -0.1537813
v 1.178142 -0.8739181 -0.1537813
v -1.178142 -0.8739181 -0.1537813
v 1.102592 0.885381 -0.2841508
v -1.102592 0.885381 -0.2841508
v 1.102592 -0.8739181 -0.2841507
v -1.102592 -0.8739181 -0.2841507
v 0.9895238 0.885381 -0.3712608
v -0.9895238 0.885381 -0.3712608
v 0.9895238 -0.8739181 -0.3712608
v -0.9895238 -0.8739181 -0.3712608
v 0.8561508 0.885381 -0.4018497
v 0.8561508 -0.8739181 -0.4018497
v -0.8561508 0.885381 -0.4018497
v -0.8561508 -0.8739181 -0.4018497
v 0 -0.885381 -0.4018497
v 0 0.8739181 -0.4018497
v 0.1988814 0.04262269 0.4018497
v 0.1988814 0.04262269 0.2649656
v 0.2091161 0.1072431 0.2649656
v 0.2091161 0.1072431 0.4018497
v 0.1988812 0.1718636 0.2649656
v 0.1988812 0.1718636 0.4018497
v 0.1691785 0.2301585 0.2649656
v 0.1691785 0.2301585 0.4018497
v 0.1229153 0.2764216 0.2649656
v 0.1229153 0.2764216 0.4018497
v 0.06462042 0.3061243 0.2649656
v 0.06462042 0.3061243 0.4018497
v -6.232145E-09 0.3163593 0.2649656
v -6.232145E-09 0.3163593 0.4018497
v 0 0.3163593 0.4018497
v -0.06462044 0.3061244 0.2649656
v -0.06462044 0.3061244 0.4018497
v -0.1229154 0.2764217 0.2649656
v -0.1229154 0.2764217 0.4018497
v -0.1691785 0.2301585 0.2649656
v -0.1691785 0.2301585 0.4018497
v -0.1988813 0.1718636 0.2649656
v -0.1988813 0.1718636 0.4018497
v -0.2091161 0.1072431 0.2649656
v -0.2091161 0.1072431 0.4018497
v -0.1988813 0.04262269 0.2649656
v -0.1988813 0.04262269 0.4018497
v -0.1691785 -0.01567229 0.2649656
v -0.1691785 -0.01567229 0.4018497
v -0.1229154 -0.06193541 0.2649656
v -0.1229154 -0.06193541 0.4018497
v 0.1691786 -0.01567229 0.4018497
v 0.1988814 0.04262269 0.2649656
v 0.1988814 0.04262269 0.4018497
v 0.1691786 -0.01567229 0.2649656
v 0.1229154 -0.06193541 0.4018497
v 0.1229154 -0.06193541 0.2649656
v 0.1229154 -0.4707722 0.4018497
v 0.1229154 -0.4707722 0.2649656
v 0.1229154 -0.06193541 0.2649656
v 0.1229154 -0.06193541 0.4018497
v 0.06462046 -0.09163817 0.2649656
v 0.1229154 -0.06193541 0.2649656
v 0.1229154 -0.4707722 0.2649656
v 0.06462046 -0.4707725 0.2649656
v 0 -0.101873 0.2649656
v 0 -0.4707725 0.2649656
v -0.06462046 -0.09163817 0.2649656
v -0.06462046 -0.4707725 0.2649656
v -0.1229154 -0.06193541 0.2649656
v -0.1229154 -0.4707722 0.2649656
v 0.06462046 -0.4707725 0.4018497
v 0.1229154 -0.4707722 0.2649656
v 0.1229154 -0.4707722 0.4018497
v 0.06462046 -0.4707725 0.2649656
v 0 -0.4707725 0.4018497
v 0 -0.4707725 0.2649656
v -0.06462046 -0.4707725 0.4018497
v -0.06462046 -0.4707725 0.2649656
v -0.1229154 -0.4707722 0.4018497
v -0.1229154 -0.4707722 0.2649656
v -0.1229154 -0.06193541 0.4018497
v -0.1229154 -0.06193541 0.2649656
v -0.1229154 -0.4707722 0.2649656
v -0.1229154 -0.4707722 0.4018497
v 0.1691785 0.2301585 0.2649656
v 0.1988812 0.1718636 0.2649656
v 0 0.1072431 0.2649656
v 0.1229153 0.2764216 0.2649656
v 0.2091161 0.1072431 0.2649656
v 0.06462042 0.3061243 0.2649656
v 0.1988814 0.04262269 0.2649656
v -6.232145E-09 0.3163593 0.2649656
v 0.1691786 -0.01567229 0.2649656
v -0.06462044 0.3061244 0.2649656
v 0.1229154 -0.06193541 0.2649656
v -0.1229154 0.2764217 0.2649656
v 0.06462046 -0.09163817 0.2649656
v -0.1691785 0.2301585 0.2649656
v 0 -0.101873 0.2649656
v -0.1988813 0.1718636 0.2649656
v -0.06462046 -0.09163817 0.2649656
v -0.2091161 0.1072431 0.2649656
v -0.1229154 -0.06193541 0.2649656
v -0.1988813 0.04262269 0.2649656
v -0.1691785 -0.01567229 0.2649656
vt 0 0
vt 0 0
vt 0 0
vt 0 0
vt 0 0
vt 0 0
vt 0 0
vt 0 0
vt 0 0
vt 0 0
vt 0 0
vt 0 0
vt 0 0
vt 0 0
vt 0 0
vt 0 0
vt 0 0
vt 0 0
vt 0 0
vt 0 0
vt 0 0
vt 0 0
vt 0 0
vt 0 0
vt 0 0
vt 0 0
vt 0 0
vt 0 0
vt 0 0
vt 0 0
vt 0 0
vt 0 0
vt 0 0
vt 0 0
vt 0 0
vt 0 0
vt 0 0
vt 0 0
vt 0 0
vt 0 0
vt 0 0
vt 0 0
vt 0 0
vt 0 0
vt 0 0
vt 0 0
vt 0 0
vt 0 0
vt 0 0
vt 0 0
vt 0 0
vt 0 0
vt 0 0
vt 0 0
vt 0 0
vt 0 0
vt 0 0
vt 0 0
vt 0 0
vt 0 0
vt 0 0
vt 0 0
vt 0 0
vt 0 0
vt 0 0
vt 0 0
vt 0 0
vt 0 0
vt 0 0
vt 0 0
vt 0 0
vt 0 0
vt 0 0
vt 0 0
vt 0 0
vt 0 0
vt 0 0
vt 0 0
vt 0 0
vt 0 0
vt 0 0
vt 0 0
vt 0 0
vt 0 0
vt 0.625 0.4248047
vt 0.625 0.6884766
vt 0.6123047 0.6884766
vt 0.6123047 0.4248047
vt 0.6000977 0.6884766
vt 0.6000977 0.4248047
vt 0.5874023 0.6884766
vt 0.5874023 0.4248047
vt 0.5751953 0.6884766
vt 0.5751953 0.4248047
vt 0.5625 0.6884766
vt 0.5625 0.4248047
vt 0.5498047 0.6884766
vt 0.5498047 0.4248047
vt 0.5498047 0.4248047
vt 0.5375977 0.6884766
vt 0.5375977 0.4248047
vt 0.5249023 0.6884766
vt 0.5249023 0.4248047
vt 0.5126953 0.6884766
vt 0.5126953 0.4248047
vt 0.5 0.6884766
vt 0.5 0.4248047
vt 0.4875488 0.6884766
vt 0.4875488 0.4248047
vt 0.4750977 0.6884766
vt 0.4750977 0.4248047
vt 0.4624023 0.6884766
vt 0.4624023 0.4248047
vt 0.4499512 0.6884766
vt 0.4499512 0.4248047
vt 0.3874512 0.4248047
vt 0.375 0.6884766
vt 0.375 0.4248047
vt 0.3874512 0.6884766
vt 0.3999023 0.4248047
vt 0.3999023 0.6884766
vt 0.3999023 0.4248047
vt 0.3999023 0.6884766
vt 0.3999023 0.6884766
vt 0.3999023 0.4248047
vt 0.4125977 0.6884766
vt 0.3999023 0.6884766
vt 0.3999023 0.6884766
vt 0.4125977 0.6884766
vt 0.4250488 0.6884766
vt 0.4250488 0.6884766
vt 0.4375 0.6884766
vt 0.4375 0.6884766
vt 0.4499512 0.6884766
vt 0.4499512 0.6884766
vt 0.4125977 0.4248047
vt 0.3999023 0.6884766
vt 0.3999023 0.4248047
vt 0.4125977 0.6884766
vt 0.4250488 0.4248047
vt 0.4250488 0.6884766
vt 0.4375 0.4248047
vt 0.4375 0.6884766
vt 0.4499512 0.4248047
vt 0.4499512 0.6884766
vt 0.4499512 0.4248047
vt 0.4499512 0.6884766
vt 0.4499512 0.6884766
vt 0.4499512 0.4248047
vt 0.6264648 0.7519531
vt 0.6484375 0.7954102
vt 0.5 0.8374023
vt 0.5917969 0.7172852
vt 0.65625 0.84375
vt 0.5483398 0.6953125
vt 0.6484375 0.8920898
vt 0.5 0.6875
vt 0.6264648 0.9355469
vt 0.4516602 0.6953125
vt 0.5917969 0.9702148
vt 0.4082031 0.7172852
vt 0.5483398 0.9921875
vt 0.3735352 0.7519531
vt 0.5 1
vt 0.3513184 0.7954102
vt 0.4516602 0.9921875
vt 0.34375 0.84375
vt 0.4082031 0.9702148
vt 0.3513184 0.8920898
vt 0.3735352 0.9355469
vn -0.007209778 1 0
vn 0 1 0
vn 0 1 0
vn -0.007209778 1 0
vn 0 1 0
vn 0 1 0
vn 0 1 0
vn 0 1 0
vn 0 1 0
vn 0 1 0
vn 0 1 0
vn 0 1 0
vn 0.007209778 1 0
vn 0.007209778 1 0
vn 0 1 0
vn 0 1 0
vn 0 1 0
vn 0 1 0
vn 0 1 0
vn 0 1 0
vn 0 1 0
vn 0.01609802 0 1
vn 0.01609802 0 1
vn 0.02215576 0 0.9995117
vn 0.02604675 0 0.9995117
vn 0.02738953 0 0.9995117
vn 0.1119995 0 0.9936523
vn 0.02604675 0 0.9995117
vn 0 0 1
vn 0.008460999 0 1
vn 0 0 1
vn -0.008460999 0 1
vn -0.1119995 0 0.9936523
vn -0.01609802 0 1
vn -0.02215576 0 0.9995117
vn -0.02604675 0 0.9995117
vn -0.01609802 0 1
vn -0.02738953 0 0.9995117
vn -0.02604675 0 0.9995117
vn -0.02215576 0 0.9995117
vn 0 0 1
vn 0.02215576 0 0.9995117
vn -0.01609802 0 1
vn 0.01609802 0 1
vn -0.008460999 0 1
vn 0.008460999 0 1
vn 0 0 1
vn 0 0 1
vn 0.1129761 0 0.9936523
vn -0.1129761 0 0.9936523
vn 0.4267578 0 0.9042969
vn -0.4267578 0 0.9042969
vn 0.4267578 0 0.9042969
vn -0.4267578 0 0.9042969
vn 0.7519531 0 0.6591797
vn -0.7519531 0 0.6591797
vn 0.7519531 0 0.6591797
vn -0.7519531 0 0.6591797
vn 0.9399414 0 0.3410645
vn -0.9399414 0 0.3410645
vn 0.9399414 0 0.3410645
vn -0.9399414 0 0.3410645
vn 1 0 0
vn -1 0 0
vn 1 0 0
vn -1 0 0
vn 0.9399414 0 -0.3410645
vn -0.9399414 0 -0.3410645
vn 0.9399414 0 -0.3410645
vn -0.9399414 0 -0.3410645
vn 0.7519531 0 -0.6591797
vn -0.7519531 0 -0.6591797
vn 0.7519531 0 -0.6591797
vn -0.7519531 0 -0.6591797
vn 0.4267578 0 -0.9042969
vn -0.4267578 0 -0.9042969
vn 0.4267578 0 -0.9042969
vn -0.4267578 0 -0.9042969
vn 0.1129761 0 -0.9936523
vn 0.1119995 0 -0.9936523
vn -0.1129761 0 -0.9936523
vn -0.1119995 0 -0.9936523
vn 0 0 -1
vn 0 0 -1
vn -0.9511719 0.309082 0
vn -0.9511719 0.309082 0
vn -1 -1.013279E-06 0
vn -1 -1.013279E-06 0
vn -0.9511719 -0.309082 0
vn -0.9511719 -0.309082 0
vn -0.809082 -0.5878906 0
vn -0.809082 -0.5878906 0
vn -0.5878906 -0.809082 0
vn -0.5878906 -0.809082 0
vn -0.309082 -0.9511719 0
vn -0.309082 -0.9511719 0
vn -2.980232E-07 -1 0
vn -2.980232E-07 -1 0
vn -0.1564941 -0.987793 0
vn 0.309082 -0.9511719 0
vn 0.309082 -0.9511719 0
vn 0.5878906 -0.809082 0
vn 0.5878906 -0.809082 0
vn 0.809082 -0.5878906 0
vn 0.809082 -0.5878906 0
vn 0.9511719 -0.309082 0
vn 0.9511719 -0.309082 0
vn 1 0 0
vn 1 0 0
vn 0.9511719 0.309082 0
vn 0.9511719 0.309082 0
vn 0.809082 0.5878906 0
vn 0.809082 0.5878906 0
vn 0.7070313 0.7070313 0
vn 0.7070313 0.7070313 0
vn -0.809082 0.5878906 0
vn -0.9511719 0.309082 0
vn -0.9511719 0.309082 0
vn -0.809082 0.5878906 0
vn -0.7070313 0.7070313 0
vn -0.7070313 0.7070313 0
vn -1 0 0
vn -1 0 0
vn -1 0 0
vn -1 0 0
vn 2.384186E-07 0 1
vn 2.384186E-07 0 1
vn 2.384186E-07 0 1
vn 2.384186E-07 0 1
vn 0 0 1
vn 0 0 1
vn 0 0 1
vn 0 0 1
vn 0 0 1
vn 0 0 1
vn -2.503395E-06 1 0
vn -5.245209E-06 1 0
vn -5.245209E-06 1 0
vn -2.503395E-06 1 0
vn 0 1 0
vn 0 1 0
vn 2.503395E-06 1 0
vn 2.503395E-06 1 0
vn 5.245209E-06 1 0
vn 5.245209E-06 1 0
vn 1 0 0
vn 1 0 0
vn 1 0 0
vn 1 0 0
vn 1.192093E-07 0 1
vn 1.192093E-07 0 1
vn 0 0 1
vn -2.384186E-07 0 1
vn 0 0 1
vn 0 0 1
vn 0 0 1
vn 1.788139E-07 0 1
vn 0 0 1
vn -1.192093E-07 0 1
vn 2.384186E-07 0 1
vn 0 0 1
vn 1.192093E-07 0 1
vn 0 0 1
vn 0 0 1
vn 0 0 1
vn -1.192093E-07 0 1
vn 0 0 1
vn -2.384186E-07 0 1
vn 0 0 1
vn 0 0 1
g polySurface1_0
f 3/3/3 2/2/2 1/1/1
f 3/3/3 1/1/1 4/4/4
f 3/3/3 4/4/4 5/5/5
f 4/4/4 1/1/1 6/6/6
f 5/5/5 4/4/4 7/7/7
f 5/5/5 7/7/7 8/8/8
f 4/4/4 9/9/9 7/7/7
f 7/7/7 9/9/9 10/10/10
f 11/11/11 4/4/4 6/6/6
f 4/4/4 11/11/11 12/12/12
f 11/11/11 13/13/13 12/12/12
f 13/13/13 11/11/11 6/6/6
f 14/14/14 13/13/13 6/6/6
f 14/14/14 15/15/15 13/13/13
f 16/16/16 15/15/15 14/14/14
f 13/13/13 15/15/15 17/17/17
f 13/13/13 17/17/17 18/18/18
f 18/18/18 17/17/17 19/19/19
f 20/20/20 13/13/13 18/18/18
f 20/20/20 18/18/18 21/21/21
f 24/24/24 23/23/23 22/22/22
f 25/25/25 24/24/24 22/22/22
f 26/26/26 25/25/25 22/22/22
f 27/27/27 26/26/26 22/22/22
f 28/28/28 26/26/26 27/27/27
f 22/22/22 29/29/29 27/27/27
f 22/22/22 30/30/30 29/29/29
f 30/30/30 31/31/31 29/29/29
f 29/29/29 31/31/31 32/32/32
f 32/32/32 33/33/33 29/29/29
f 32/32/32 34/34/34 33/33/33
f 34/34/34 35/35/35 33/33/33
f 35/35/35 36/36/36 33/33/33
f 34/34/34 37/37/37 35/35/35
f 36/36/36 38/38/38 33/33/33
f 33/33/33 38/38/38 39/39/39
f 33/33/33 39/39/39 40/40/40
f 27/27/27 41/41/41 28/28/28
f 41/41/41 33/33/33 40/40/40
f 41/41/41 42/42/42 28/28/28
f 41/41/41 40/40/40 43/43/43
f 41/41/41 44/44/44 42/42/42
f 41/41/41 43/43/43 45/45/45
f 41/41/41 46/46/46 44/44/44
f 41/41/41 45/45/45 47/47/47
f 41/41/41 48/48/48 46/46/46
f 47/47/47 48/48/48 41/41/41
f 49/49/49 41/41/41 27/27/27
f 41/41/41 50/50/50 33/33/33
f 51/51/51 49/49/49 27/27/27
f 50/50/50 52/52/52 33/33/33
f 53/53/53 51/51/51 27/27/27
f 52/52/52 54/54/54 33/33/33
f 55/55/55 51/51/51 53/53/53
f 52/52/52 56/56/56 54/54/54
f 57/57/57 55/55/55 53/53/53
f 56/56/56 58/58/58 54/54/54
f 59/59/59 55/55/55 57/57/57
f 56/56/56 60/60/60 58/58/58
f 61/61/61 59/59/59 57/57/57
f 60/60/60 62/62/62 58/58/58
f 63/63/63 59/59/59 61/61/61
f 60/60/60 64/64/64 62/62/62
f 65/65/65 63/63/63 61/61/61
f 64/64/64 66/66/66 62/62/62
f 67/67/67 63/63/63 65/65/65
f 64/64/64 68/68/68 66/66/66
f 69/69/69 67/67/67 65/65/65
f 68/68/68 70/70/70 66/66/66
f 71/71/71 67/67/67 69/69/69
f 68/68/68 72/72/72 70/70/70
f 73/73/73 71/71/71 69/69/69
f 72/72/72 74/74/74 70/70/70
f 75/75/75 71/71/71 73/73/73
f 72/72/72 76/76/76 74/74/74
f 77/77/77 75/75/75 73/73/73
f 76/76/76 78/78/78 74/74/74
f 79/79/79 75/75/75 77/77/77
f 80/80/80 79/79/79 77/77/77
f 76/76/76 81/81/81 78/78/78
f 81/81/81 82/82/82 78/78/78
f 80/80/80 83/83/83 79/79/79
f 83/83/83 82/82/82 81/81/81
f 83/83/83 84/84/84 79/79/79
f 84/84/84 83/83/83 81/81/81
g polySurface1_1
f 87/87/87 86/86/86 85/85/85
f 88/88/88 87/87/87 85/85/85
f 89/89/89 87/87/87 88/88/88
f 90/90/90 89/89/89 88/88/88
f 91/91/91 89/89/89 90/90/90
f 92/92/92 91/91/91 90/90/90
f 93/93/93 91/91/91 92/92/92
f 94/94/94 93/93/93 92/92/92
f 95/95/95 93/93/93 94/94/94
f 96/96/96 95/95/95 94/94/94
f 97/97/97 95/95/95 96/96/96
f 96/96/96 98/98/98 97/97/97
f 96/96/96 99/99/99 98/98/98
f 100/100/100 97/97/97 98/98/98
f 101/101/101 100/100/100 98/98/98
f 102/102/102 100/100/100 101/101/101
f 103/103/103 102/102/102 101/101/101
f 104/104/104 102/102/102 103/103/103
f 105/105/105 104/104/104 103/103/103
f 106/106/106 104/104/104 105/105/105
f 107/107/107 106/106/106 105/105/105
f 108/108/108 106/106/106 107/107/107
f 109/109/109 108/108/108 107/107/107
f 110/110/110 108/108/108 109/109/109
f 111/111/111 110/110/110 109/109/109
f 112/112/112 110/110/110 111/111/111
f 113/113/113 112/112/112 111/111/111
f 114/114/114 112/112/112 113/113/113
f 115/115/115 114/114/114 113/113/113
f 118/118/118 117/117/117 116/116/116
f 117/117/117 119/119/119 116/116/116
f 116/116/116 119/119/119 120/120/120
f 119/119/119 121/121/121 120/120/120
f 124/124/124 123/123/123 122/122/122
f 125/125/125 124/124/124 122/122/122
f 128/128/128 127/127/127 126/126/126
f 129/129/129 128/128/128 126/126/126
f 129/129/129 126/126/126 130/130/130
f 131/131/131 129/129/129 130/130/130
f 131/131/131 130/130/130 132/132/132
f 133/133/133 131/131/131 132/132/132
f 133/133/133 132/132/132 134/134/134
f 135/135/135 133/133/133 134/134/134
f 138/138/138 137/137/137 136/136/136
f 137/137/137 139/139/139 136/136/136
f 136/136/136 139/139/139 140/140/140
f 139/139/139 141/141/141 140/140/140
f 140/140/140 141/141/141 142/142/142
f 141/141/141 143/143/143 142/142/142
f 142/142/142 143/143/143 144/144/144
f 143/143/143 145/145/145 144/144/144
f 148/148/148 147/147/147 146/146/146
f 149/149/149 148/148/148 146/146/146
f 152/152/152 151/151/151 150/150/150
f 152/152/152 150/150/150 153/153/153
f 152/152/152 154/154/154 151/151/151
f 152/152/152 153/153/153 155/155/155
f 152/152/152 156/156/156 154/154/154
f 152/152/152 155/155/155 157/157/157
f 152/152/152 158/158/158 156/156/156
f 152/152/152 157/157/157 159/159/159
f 152/152/152 160/160/160 158/158/158
f 152/152/152 159/159/159 161/161/161
f 152/152/152 162/162/162 160/160/160
f 152/152/152 161/161/161 163/163/163
f 152/152/152 164/164/164 162/162/162
f 152/152/152 163/163/163 165/165/165
f 152/152/152 166/166/166 164/164/164
f 152/152/152 165/165/165 167/167/167
f 152/152/152 168/168/168 166/166/166
f 152/152/152 167/167/167 169/169/169
f 152/152/152 170/170/170 168/168/168
f 152/152/152 169/169/169 170/170/170
