g polySurface318_1
v -0.2283322 0.1240959 0
v -0.1383831 0.1240959 0
v -0.1977418 0.124096 0.1141661
v -0.1198436 0.1240959 0.06919156
v -0.2283322 0.1240959 0
v -0.1198436 0.124096 -0.06919155
v -0.1977418 0.1240959 -0.1141661
v -0.06919153 0.124096 -0.1198435
v -0.1141659 0.124096 -0.1977416
v 0 0.1240958 -0.1383831
v 0 0.1240959 -0.2283322
v 0.06919153 0.124096 -0.1198435
v 0.1141659 0.124096 -0.1977416
v 0.1198436 0.124096 -0.06919155
v 0.1977418 0.1240959 -0.1141661
v -0.1977418 0.124096 0.1141661
v -0.1141659 0.1240959 0.1977416
v -0.06919153 0.1240959 0.1198435
v 0 0.1240959 0.2283322
v 0 0.124096 0.1383831
v 0.1141659 0.1240959 0.1977416
v 0.06919153 0.1240959 0.1198435
v 0.1977418 0.124096 0.1141661
v 0.1198436 0.1240959 0.06919156
v 0.2283322 0.1240959 0
v 0.1383831 0.1240959 0
v 0.1977418 0.1240959 -0.1141661
v 0.2283322 0.1240959 0
v 0 0.1217895 -0.2306385
v 0.1141659 0.124096 -0.1977416
v 0 0.1240959 -0.2283322
v 0.1331591 0.08610985 -0.2306385
v 0.1331591 -0.08008827 -0.2306385
v 0 -0.1180744 -0.2283322
v 0.1141659 -0.1180746 -0.1977416
v 0 -0.1157679 -0.2306385
v -0.1331591 0.08610985 -0.2306385
v 0 0.1240959 -0.2283322
v -0.1141659 0.124096 -0.1977416
v 0 0.1217895 -0.2306385
v 0.2283322 -0.1180744 0
v 0.1383831 -0.1180744 0
v 0.1977418 -0.1180746 0.1141661
v 0.1198436 -0.1180746 0.06919156
v 0.2283322 -0.1180744 0
v 0.1198436 -0.1180746 -0.06919156
v 0.1977418 -0.1180746 -0.1141661
v 0.06919153 -0.1180746 -0.1198435
v 0.1141659 -0.1180746 -0.1977416
v 0 -0.1180744 -0.1383831
v 0 -0.1180744 -0.2283322
v -0.06919153 -0.1180746 -0.1198435
v -0.1141659 -0.1180746 -0.1977416
v -0.1198436 -0.1180746 -0.06919156
v -0.1977418 -0.1180746 -0.1141661
v 0.1977418 -0.1180746 0.1141661
v 0.1141659 -0.1180744 0.1977416
v 0.06919153 -0.1180744 0.1198435
v 0 -0.1180744 0.2283322
v 0 -0.1180746 0.1383831
v -0.1141659 -0.1180744 0.1977416
v -0.06919153 -0.1180744 0.1198435
v -0.1977418 -0.1180746 0.1141661
v -0.1198436 -0.1180746 0.06919156
v -0.2283322 -0.1180744 0
v -0.1383831 -0.1180744 0
v -0.1977418 -0.1180746 -0.1141661
v -0.2283322 -0.1180744 0
v 0 -0.1157679 -0.2306385
v -0.1141659 -0.1180746 -0.1977416
v 0 -0.1180744 -0.2283322
v -0.1331591 -0.08008827 -0.2306385
v -0.1997391 0.1217896 -0.1153193
v -0.1141659 0.124096 -0.1977416
v -0.1977418 0.1240959 -0.1141661
v -0.1331591 0.08610985 -0.2306385
v -0.1331591 -0.08008827 -0.2306385
v -0.1977418 -0.1180746 -0.1141661
v -0.1141659 -0.1180746 -0.1977416
v -0.1997391 -0.1157679 -0.1153193
v -0.2663185 0.08610985 0
v -0.1977418 0.1240959 -0.1141661
v -0.2283322 0.1240959 0
v -0.1997391 0.1217896 -0.1153193
v -0.1997391 -0.1157679 -0.1153193
v -0.2283322 -0.1180744 0
v -0.1977418 -0.1180746 -0.1141661
v -0.2663185 -0.08008827 0
v -0.1997391 0.1217896 0.1153193
v -0.2283322 0.1240959 0
v -0.1977418 0.124096 0.1141661
v -0.2663185 0.08610985 0
v -0.2663185 -0.08008827 0
v -0.1977418 -0.1180746 0.1141661
v -0.2283322 -0.1180744 0
v -0.1997391 -0.1157679 0.1153193
v -0.1331591 0.08610985 0.2306385
v -0.1977418 0.124096 0.1141661
v -0.1141659 0.1240959 0.1977416
v -0.1997391 0.1217896 0.1153193
v -0.1997391 -0.1157679 0.1153193
v -0.1141659 -0.1180744 0.1977416
v -0.1977418 -0.1180746 0.1141661
v -0.1331591 -0.08008827 0.2306385
v 0 0.1217896 0.2306385
v -0.1141659 0.1240959 0.1977416
v 0 0.1240959 0.2283322
v -0.1331591 0.08610985 0.2306385
v -0.1331591 -0.08008827 0.2306385
v 0 -0.1180744 0.2283322
v -0.1141659 -0.1180744 0.1977416
v 0 -0.1157681 0.2306385
v 0.1331591 0.08610985 0.2306385
v 0 0.1240959 0.2283322
v 0.1141659 0.1240959 0.1977416
v 0 0.1217896 0.2306385
v 0 -0.1157681 0.2306385
v 0.1141659 -0.1180744 0.1977416
v 0 -0.1180744 0.2283322
v 0.1331591 -0.08008827 0.2306385
v 0.1997391 0.1217896 0.1153193
v 0.1141659 0.1240959 0.1977416
v 0.1977418 0.124096 0.1141661
v 0.1331591 0.08610985 0.2306385
v 0.1331591 -0.08008827 0.2306385
v 0.1977418 -0.1180746 0.1141661
v 0.1141659 -0.1180744 0.1977416
v 0.1997391 -0.1157679 0.1153193
v 0.2663185 0.08610985 0
v 0.1977418 0.124096 0.1141661
v 0.2283322 0.1240959 0
v 0.1997391 0.1217896 0.1153193
v 0.1997391 -0.1157679 0.1153193
v 0.2283322 -0.1180744 0
v 0.1977418 -0.1180746 0.1141661
v 0.2663185 -0.08008827 0
v 0.1997391 0.1217896 -0.1153193
v 0.2283322 0.1240959 0
v 0.1977418 0.1240959 -0.1141661
v 0.2663185 0.08610985 0
v 0.2663185 -0.08008827 0
v 0.1977418 -0.1180746 -0.1141661
v 0.2283322 -0.1180744 0
v 0.1997391 -0.1157679 -0.1153193
v 0.1331591 0.08610985 -0.2306385
v 0.1977418 0.1240959 -0.1141661
v 0.1141659 0.124096 -0.1977416
v 0.1997391 0.1217896 -0.1153193
v 0.1997391 -0.1157679 -0.1153193
v 0.1141659 -0.1180746 -0.1977416
v 0.1977418 -0.1180746 -0.1141661
v 0.1331591 -0.08008827 -0.2306385
v 0 -0.1180744 -0.1383831
v 0.06919153 0.124096 -0.1198435
v 0.06919153 -0.1180746 -0.1198435
v 0 0.1240958 -0.1383831
v -0.06919153 0.124096 -0.1198435
v -0.06919153 -0.1180746 -0.1198435
v -0.1198436 0.124096 -0.06919155
v -0.1198436 -0.1180746 -0.06919156
v -0.1383831 0.1240959 0
v -0.1383831 -0.1180744 0
v -0.1198436 0.1240959 0.06919156
v -0.1198436 -0.1180746 0.06919156
v -0.06919153 0.1240959 0.1198435
v -0.06919153 -0.1180744 0.1198435
v 0 0.124096 0.1383831
v 0 -0.1180746 0.1383831
v 0.06919153 0.1240959 0.1198435
v 0.06919153 -0.1180744 0.1198435
v 0.1198436 0.1240959 0.06919156
v 0.1198436 -0.1180746 0.06919156
v 0.1383831 0.1240959 0
v 0.1383831 -0.1180744 0
v 0.1198436 0.124096 -0.06919155
v 0.1198436 -0.1180746 -0.06919156
v 0.06919153 0.124096 -0.1198435
v 0.06919153 -0.1180746 -0.1198435
v 0.1331591 -0.08008827 -0.2306385
v 0.1331591 0.08610985 -0.2306385
v 0 -0.08008827 -0.2306385
v 0 -0.1157679 -0.2306385
v -0.1331591 -0.08008827 -0.2306385
v 0 0.08610985 -0.2306385
v 0 0.1217895 -0.2306385
v -0.1331591 0.08610985 -0.2306385
v -0.1997391 0.08610985 -0.1153193
v -0.1331591 0.08610985 -0.2306385
v -0.1997391 0.1217896 -0.1153193
v -0.2663185 0.08610985 0
v -0.2663185 -0.08008827 0
v -0.1997391 -0.08008827 -0.1153193
v -0.1331591 -0.08008827 -0.2306385
v -0.1997391 -0.1157679 -0.1153193
v -0.1997391 0.08610985 0.1153193
v -0.2663185 0.08610985 0
v -0.1997391 0.1217896 0.1153193
v -0.1331591 0.08610985 0.2306385
v -0.1331591 -0.08008827 0.2306385
v -0.1997391 -0.08008827 0.1153193
v -0.2663185 -0.08008827 0
v -0.1997391 -0.1157679 0.1153193
v 0 0.08610985 0.2306385
v -0.1331591 0.08610985 0.2306385
v 0 0.1217896 0.2306385
v 0.1331591 0.08610985 0.2306385
v 0.1331591 -0.08008827 0.2306385
v 0 -0.08008827 0.2306385
v -0.1331591 -0.08008827 0.2306385
v 0 -0.1157681 0.2306385
v 0.1997391 0.08610985 0.1153193
v 0.1331591 0.08610985 0.2306385
v 0.1997391 0.1217896 0.1153193
v 0.2663185 0.08610985 0
v 0.2663185 -0.08008827 0
v 0.1997391 -0.08008827 0.1153193
v 0.1331591 -0.08008827 0.2306385
v 0.1997391 -0.1157679 0.1153193
v 0.1997391 0.08610985 -0.1153193
v 0.2663185 0.08610985 0
v 0.1997391 0.1217896 -0.1153193
v 0.1331591 0.08610985 -0.2306385
v 0.1331591 -0.08008827 -0.2306385
v 0.1997391 -0.08008827 -0.1153193
v 0.2663185 -0.08008827 0
v 0.1997391 -0.1157679 -0.1153193
vt 0.8442383 0.956543
vt 0.8056641 0.8896484
vt 0.7475586 0.9780273
vt 0.7470703 0.9047852
vt 0.8442383 0.956543
vt 0.8476563 0.847168
vt 0.9111328 0.8833008
vt 0.8632813 0.7890625
vt 0.940918 0.7890625
vt 0.8481445 0.730957
vt 0.9111328 0.6943359
vt 0.8056641 0.6884766
vt 0.8442383 0.6210938
vt 0.7475586 0.6733398
vt 0.7470703 0.5996094
vt 0.7475586 0.9780273
vt 0.6503906 0.956543
vt 0.6894531 0.8896484
vt 0.5834961 0.8837891
vt 0.6469727 0.8466797
vt 0.5537109 0.7890625
vt 0.6313477 0.7890625
vt 0.5834961 0.6943359
vt 0.6469727 0.730957
vt 0.6503906 0.6210938
vt 0.6894531 0.6884766
vt 0.7470703 0.5996094
vt 0.6503906 0.6210938
vt 0.9228516 0.6875
vt 0.8442383 0.6210938
vt 0.9111328 0.6943359
vt 0.8676758 0.5805664
vt 0.01270294 0.7890625
vt 0.0892334 0.8837891
vt 0.05944824 0.7890625
vt 0.07745361 0.890625
vt 0.987793 0.7890625
vt 0.9111328 0.6943359
vt 0.940918 0.7890625
vt 0.9228516 0.6875
vt 0.15625 0.6210938
vt 0.1949463 0.6884766
vt 0.2529297 0.5996094
vt 0.2531738 0.6733398
vt 0.15625 0.6210938
vt 0.15271 0.730957
vt 0.08911133 0.6943359
vt 0.1369629 0.7890625
vt 0.05944824 0.7890625
vt 0.1524658 0.8466797
vt 0.0892334 0.8837891
vt 0.1949463 0.8896484
vt 0.15625 0.956543
vt 0.2529297 0.9047852
vt 0.2531738 0.9780273
vt 0.2529297 0.5996094
vt 0.3498535 0.6210938
vt 0.3110352 0.6884766
vt 0.416748 0.6943359
vt 0.3535156 0.730957
vt 0.4465332 0.7890625
vt 0.3691406 0.7890625
vt 0.4169922 0.8833008
vt 0.3532715 0.847168
vt 0.3498535 0.956543
vt 0.3110352 0.8896484
vt 0.2531738 0.9780273
vt 0.3498535 0.956543
vt 0.07745361 0.890625
vt 0.15625 0.956543
vt 0.0892334 0.8837891
vt 0.1329346 0.9970703
vt 0.9228516 0.8901367
vt 0.940918 0.7890625
vt 0.9111328 0.8833008
vt 0.987793 0.7890625
vt 0.1329346 0.9970703
vt 0.2531738 0.9780273
vt 0.15625 0.956543
vt 0.2531738 0.9916992
vt 0.8676758 0.9970703
vt 0.9111328 0.8833008
vt 0.8442383 0.956543
vt 0.9228516 0.8901367
vt 0.2531738 0.9916992
vt 0.3498535 0.956543
vt 0.2531738 0.9780273
vt 0.373291 0.9970703
vt 0.7475586 0.9916992
vt 0.8442383 0.956543
vt 0.7475586 0.9780273
vt 0.8676758 0.9970703
vt 0.373291 0.9970703
vt 0.4169922 0.8833008
vt 0.3498535 0.956543
vt 0.4287109 0.8901367
vt 0.6274414 0.9970703
vt 0.7475586 0.9780273
vt 0.6503906 0.956543
vt 0.7475586 0.9916992
vt 0.4287109 0.8901367
vt 0.4465332 0.7890625
vt 0.4169922 0.8833008
vt 0.4934082 0.7890625
vt 0.5717773 0.890625
vt 0.6503906 0.956543
vt 0.5834961 0.8837891
vt 0.6274414 0.9970703
vt 0.4934082 0.7890625
vt 0.416748 0.6943359
vt 0.4465332 0.7890625
vt 0.4287109 0.6875
vt 0.5068359 0.7890625
vt 0.5834961 0.8837891
vt 0.5537109 0.7890625
vt 0.5717773 0.890625
vt 0.4287109 0.6875
vt 0.3498535 0.6210938
vt 0.416748 0.6943359
vt 0.3730469 0.5805664
vt 0.5717773 0.6875
vt 0.5537109 0.7890625
vt 0.5834961 0.6943359
vt 0.5068359 0.7890625
vt 0.3730469 0.5805664
vt 0.2529297 0.5996094
vt 0.3498535 0.6210938
vt 0.2529297 0.5859375
vt 0.6269531 0.5805664
vt 0.5834961 0.6943359
vt 0.6503906 0.6210938
vt 0.5717773 0.6875
vt 0.2529297 0.5859375
vt 0.15625 0.6210938
vt 0.2529297 0.5996094
vt 0.1328125 0.5805664
vt 0.7470703 0.5859375
vt 0.6503906 0.6210938
vt 0.7470703 0.5996094
vt 0.6269531 0.5805664
vt 0.1328125 0.5805664
vt 0.08911133 0.6943359
vt 0.15625 0.6210938
vt 0.07733154 0.6875
vt 0.8676758 0.5805664
vt 0.7470703 0.5996094
vt 0.8442383 0.6210938
vt 0.7470703 0.5859375
vt 0.07733154 0.6875
vt 0.05944824 0.7890625
vt 0.08911133 0.6943359
vt 0.01270294 0.7890625
vt 0.565918 0.3859863
vt 0.6162109 0.5551758
vt 0.6162109 0.3859863
vt 0.565918 0.5551758
vt 0.5161133 0.5551758
vt 0.5161133 0.3859863
vt 0.4658203 0.5551758
vt 0.4658203 0.3859863
vt 0.4157715 0.5551758
vt 0.4157715 0.3859863
vt 0.3657227 0.5551758
vt 0.3657227 0.3859863
vt 0.3156738 0.5551758
vt 0.3156738 0.3859863
vt 0.265625 0.5551758
vt 0.265625 0.3859863
vt 0.2156982 0.5551758
vt 0.2156982 0.3859863
vt 0.1656494 0.5551758
vt 0.1656494 0.3859863
vt 0.1155396 0.5551758
vt 0.1155396 0.3859863
vt 0.06555176 0.5551758
vt 0.06555176 0.3859863
vt 0.01548004 0.5551758
vt 0.01548004 0.3859863
vt 0.1121216 0.0295105
vt 0.1121216 0.166626
vt 0.2219238 0.0295105
vt 0.2219238 7.802248E-05
vt 0.3317871 0.0295105
vt 0.2219238 0.166626
vt 0.2219238 0.1960449
vt 0.3317871 0.166626
vt 0.4416504 0.166626
vt 0.3317871 0.166626
vt 0.4416504 0.1960449
vt 0.5512695 0.166626
vt 0.5512695 0.0295105
vt 0.4416504 0.0295105
vt 0.3317871 0.0295105
vt 0.4416504 7.70092E-05
vt 0.6611328 0.166626
vt 0.5512695 0.166626
vt 0.6611328 0.1960449
vt 0.7709961 0.166626
vt 0.7709961 0.0295105
vt 0.6611328 0.0295105
vt 0.5512695 0.0295105
vt 0.6611328 7.70092E-05
vt 0.5522461 0.2010498
vt 0.6621094 0.2010498
vt 0.5522461 0.1716309
vt 0.442627 0.2010498
vt 0.442627 0.3381348
vt 0.5522461 0.3381348
vt 0.6621094 0.3381348
vt 0.5522461 0.3674316
vt 0.3327637 0.2010498
vt 0.442627 0.2010498
vt 0.3327637 0.1716309
vt 0.2229004 0.2010498
vt 0.2229004 0.3381348
vt 0.3327637 0.3381348
vt 0.442627 0.3381348
vt 0.3327637 0.3674316
vt 0.1130981 0.2010498
vt 0.2229004 0.2010498
vt 0.1130981 0.1716309
vt 0.003250122 0.2010498
vt 0.003250122 0.3381348
vt 0.1130981 0.3381348
vt 0.2229004 0.3381348
vt 0.1130981 0.3674316
vn 0 1 0
vn 0 1 0
vn 0 1 0
vn 0 1 0
vn 0 1 0
vn 0 1 0
vn 0 1 0
vn 0 1 0
vn 0 1 0
vn 0 1 0
vn 0 1 0
vn 0 1 0
vn 0 1 0
vn 0 1 0
vn 0 1 0
vn 0 1 0
vn 0 1 0
vn 0 1 0
vn 0 1 0
vn 0 1 0
vn 0 1 0
vn 0 1 0
vn 0 1 0
vn 0 1 0
vn 0 1 0
vn 0 1 0
vn 0 1 0
vn 0 1 0
vn 0.1861572 0.6948242 -0.6948242
vn 0.1861572 0.6948242 -0.6948242
vn 0.1861572 0.6948242 -0.6948242
vn 0.1861572 0.6948242 -0.6948242
vn 0.1861572 -0.6948242 -0.6948242
vn 0.1861572 -0.6948242 -0.6948242
vn 0.1861572 -0.6948242 -0.6948242
vn 0.1861572 -0.6948242 -0.6948242
vn -0.1861572 0.6948242 -0.6948242
vn -0.1861572 0.6948242 -0.6948242
vn -0.1861572 0.6948242 -0.6948242
vn -0.1861572 0.6948242 -0.6948242
vn 0 -1 0
vn 0 -1 0
vn 0 -1 0
vn 0 -1 0
vn 0 -1 0
vn 0 -1 0
vn 0 -1 0
vn 0 -1 0
vn 0 -1 0
vn 0 -1 0
vn 0 -1 0
vn 0 -1 0
vn 0 -1 0
vn 0 -1 0
vn 0 -1 0
vn 0 -1 0
vn 0 -1 0
vn 0 -1 0
vn 0 -1 0
vn 0 -1 0
vn 0 -1 0
vn 0 -1 0
vn 0 -1 0
vn 0 -1 0
vn 0 -1 0
vn 0 -1 0
vn 0 -1 0
vn 0 -1 0
vn -0.1861572 -0.6948242 -0.6948242
vn -0.1861572 -0.6948242 -0.6948242
vn -0.1861572 -0.6948242 -0.6948242
vn -0.1861572 -0.6948242 -0.6948242
vn -0.5087891 0.6948242 -0.5087891
vn -0.5087891 0.6948242 -0.5087891
vn -0.5087891 0.6948242 -0.5087891
vn -0.5087891 0.6948242 -0.5087891
vn -0.5087891 -0.6948242 -0.5087891
vn -0.5087891 -0.6948242 -0.5087891
vn -0.5087891 -0.6948242 -0.5087891
vn -0.5087891 -0.6948242 -0.5087891
vn -0.6948242 0.6948242 -0.1861572
vn -0.6948242 0.6948242 -0.1861572
vn -0.6948242 0.6948242 -0.1861572
vn -0.6948242 0.6948242 -0.1861572
vn -0.6948242 -0.6948242 -0.1861572
vn -0.6948242 -0.6948242 -0.1861572
vn -0.6948242 -0.6948242 -0.1861572
vn -0.6948242 -0.6948242 -0.1861572
vn -0.6948242 0.6948242 0.1861572
vn -0.6948242 0.6948242 0.1861572
vn -0.6948242 0.6948242 0.1861572
vn -0.6948242 0.6948242 0.1861572
vn -0.6948242 -0.6948242 0.1861572
vn -0.6948242 -0.6948242 0.1861572
vn -0.6948242 -0.6948242 0.1861572
vn -0.6948242 -0.6948242 0.1861572
vn -0.5087891 0.6948242 0.5087891
vn -0.5087891 0.6948242 0.5087891
vn -0.5087891 0.6948242 0.5087891
vn -0.5087891 0.6948242 0.5087891
vn -0.5087891 -0.6948242 0.5087891
vn -0.5087891 -0.6948242 0.5087891
vn -0.5087891 -0.6948242 0.5087891
vn -0.5087891 -0.6948242 0.5087891
vn -0.1861572 0.6948242 0.6948242
vn -0.1861572 0.6948242 0.6948242
vn -0.1861572 0.6948242 0.6948242
vn -0.1861572 0.6948242 0.6948242
vn -0.1861572 -0.6948242 0.6948242
vn -0.1861572 -0.6948242 0.6948242
vn -0.1861572 -0.6948242 0.6948242
vn -0.1861572 -0.6948242 0.6948242
vn 0.1861572 0.6948242 0.6948242
vn 0.1861572 0.6948242 0.6948242
vn 0.1861572 0.6948242 0.6948242
vn 0.1861572 0.6948242 0.6948242
vn 0.1861572 -0.6948242 0.6948242
vn 0.1861572 -0.6948242 0.6948242
vn 0.1861572 -0.6948242 0.6948242
vn 0.1861572 -0.6948242 0.6948242
vn 0.5087891 0.6948242 0.5087891
vn 0.5087891 0.6948242 0.5087891
vn 0.5087891 0.6948242 0.5087891
vn 0.5087891 0.6948242 0.5087891
vn 0.5087891 -0.6948242 0.5087891
vn 0.5087891 -0.6948242 0.5087891
vn 0.5087891 -0.6948242 0.5087891
vn 0.5087891 -0.6948242 0.5087891
vn 0.6948242 0.6948242 0.1861572
vn 0.6948242 0.6948242 0.1861572
vn 0.6948242 0.6948242 0.1861572
vn 0.6948242 0.6948242 0.1861572
vn 0.6948242 -0.6948242 0.1861572
vn 0.6948242 -0.6948242 0.1861572
vn 0.6948242 -0.6948242 0.1861572
vn 0.6948242 -0.6948242 0.1861572
vn 0.6948242 0.6948242 -0.1861572
vn 0.6948242 0.6948242 -0.1861572
vn 0.6948242 0.6948242 -0.1861572
vn 0.6948242 0.6948242 -0.1861572
vn 0.6948242 -0.6948242 -0.1861572
vn 0.6948242 -0.6948242 -0.1861572
vn 0.6948242 -0.6948242 -0.1861572
vn 0.6948242 -0.6948242 -0.1861572
vn 0.5087891 0.6948242 -0.5087891
vn 0.5087891 0.6948242 -0.5087891
vn 0.5087891 0.6948242 -0.5087891
vn 0.5087891 0.6948242 -0.5087891
vn 0.5087891 -0.6948242 -0.5087891
vn 0.5087891 -0.6948242 -0.5087891
vn 0.5087891 -0.6948242 -0.5087891
vn 0.5087891 -0.6948242 -0.5087891
vn 0 0 1
vn -0.5 0 0.8662109
vn -0.5 0 0.8662109
vn 0 0 1
vn 0.5 0 0.8662109
vn 0.5 0 0.8662109
vn 0.8662109 0 0.5
vn 0.8662109 0 0.5
vn 1 0 0
vn 1 0 0
vn 0.8662109 0 -0.5
vn 0.8662109 0 -0.5
vn 0.5 0 -0.8662109
vn 0.5 0 -0.8662109
vn 0 0 -1
vn 0 0 -1
vn -0.5 0 -0.8662109
vn -0.5 0 -0.8662109
vn -0.8662109 0 -0.5
vn -0.8662109 0 -0.5
vn -1 0 0
vn -1 0 0
vn -0.8662109 0 0.5
vn -0.8662109 0 0.5
vn -0.5 0 0.8662109
vn -0.5 0 0.8662109
vn 0 0 -1
vn 0 0 -1
vn 0 0 -1
vn 0 0 -1
vn 0 0 -1
vn 0 0 -1
vn 0 0 -1
vn 0 0 -1
vn -0.8662109 0 -0.5
vn -0.8662109 0 -0.5
vn -0.8662109 0 -0.5
vn -0.8662109 0 -0.5
vn -0.8662109 0 -0.5
vn -0.8662109 0 -0.5
vn -0.8662109 0 -0.5
vn -0.8662109 0 -0.5
vn -0.8662109 0 0.5
vn -0.8662109 0 0.5
vn -0.8662109 0 0.5
vn -0.8662109 0 0.5
vn -0.8662109 0 0.5
vn -0.8662109 0 0.5
vn -0.8662109 0 0.5
vn -0.8662109 0 0.5
vn 0 0 1
vn 0 0 1
vn 0 0 1
vn 0 0 1
vn 0 0 1
vn 0 0 1
vn 0 0 1
vn 0 0 1
vn 0.8662109 0 0.5
vn 0.8662109 0 0.5
vn 0.8662109 0 0.5
vn 0.8662109 0 0.5
vn 0.8662109 0 0.5
vn 0.8662109 0 0.5
vn 0.8662109 0 0.5
vn 0.8662109 0 0.5
vn 0.8662109 0 -0.5
vn 0.8662109 0 -0.5
vn 0.8662109 0 -0.5
vn 0.8662109 0 -0.5
vn 0.8662109 0 -0.5
vn 0.8662109 0 -0.5
vn 0.8662109 0 -0.5
vn 0.8662109 0 -0.5
g polySurface318_1_0
f 3/3/3 2/2/2 1/1/1
f 4/4/4 2/2/2 3/3/3
f 2/2/2 6/6/6 5/5/5
f 5/5/5 6/6/6 7/7/7
f 6/6/6 8/8/8 7/7/7
f 7/7/7 8/8/8 9/9/9
f 8/8/8 10/10/10 9/9/9
f 9/9/9 10/10/10 11/11/11
f 10/10/10 12/12/12 11/11/11
f 11/11/11 12/12/12 13/13/13
f 14/14/14 13/13/13 12/12/12
f 15/15/15 13/13/13 14/14/14
f 17/17/17 4/4/4 16/16/16
f 18/18/18 4/4/4 17/17/17
f 19/19/19 18/18/18 17/17/17
f 20/20/20 18/18/18 19/19/19
f 21/21/21 20/20/20 19/19/19
f 22/22/22 20/20/20 21/21/21
f 23/23/23 22/22/22 21/21/21
f 24/24/24 22/22/22 23/23/23
f 25/25/25 24/24/24 23/23/23
f 26/26/26 24/24/24 25/25/25
f 14/14/14 26/26/26 27/27/27
f 27/27/27 26/26/26 28/28/28
f 31/31/31 30/30/30 29/29/29
f 29/29/29 30/30/30 32/32/32
f 35/35/35 34/34/34 33/33/33
f 33/33/33 34/34/34 36/36/36
f 39/39/39 38/38/38 37/37/37
f 37/37/37 38/38/38 40/40/40
f 43/43/43 42/42/42 41/41/41
f 44/44/44 42/42/42 43/43/43
f 42/42/42 46/46/46 45/45/45
f 45/45/45 46/46/46 47/47/47
f 46/46/46 48/48/48 47/47/47
f 47/47/47 48/48/48 49/49/49
f 48/48/48 50/50/50 49/49/49
f 49/49/49 50/50/50 51/51/51
f 50/50/50 52/52/52 51/51/51
f 51/51/51 52/52/52 53/53/53
f 52/52/52 54/54/54 53/53/53
f 53/53/53 54/54/54 55/55/55
f 57/57/57 44/44/44 56/56/56
f 58/58/58 44/44/44 57/57/57
f 59/59/59 58/58/58 57/57/57
f 60/60/60 58/58/58 59/59/59
f 61/61/61 60/60/60 59/59/59
f 62/62/62 60/60/60 61/61/61
f 63/63/63 62/62/62 61/61/61
f 64/64/64 62/62/62 63/63/63
f 65/65/65 64/64/64 63/63/63
f 66/66/66 64/64/64 65/65/65
f 54/54/54 66/66/66 67/67/67
f 67/67/67 66/66/66 68/68/68
f 71/71/71 70/70/70 69/69/69
f 69/69/69 70/70/70 72/72/72
f 75/75/75 74/74/74 73/73/73
f 73/73/73 74/74/74 76/76/76
f 79/79/79 78/78/78 77/77/77
f 77/77/77 78/78/78 80/80/80
f 83/83/83 82/82/82 81/81/81
f 81/81/81 82/82/82 84/84/84
f 87/87/87 86/86/86 85/85/85
f 85/85/85 86/86/86 88/88/88
f 91/91/91 90/90/90 89/89/89
f 89/89/89 90/90/90 92/92/92
f 95/95/95 94/94/94 93/93/93
f 93/93/93 94/94/94 96/96/96
f 99/99/99 98/98/98 97/97/97
f 97/97/97 98/98/98 100/100/100
f 103/103/103 102/102/102 101/101/101
f 101/101/101 102/102/102 104/104/104
f 107/107/107 106/106/106 105/105/105
f 105/105/105 106/106/106 108/108/108
f 111/111/111 110/110/110 109/109/109
f 109/109/109 110/110/110 112/112/112
f 115/115/115 114/114/114 113/113/113
f 113/113/113 114/114/114 116/116/116
f 119/119/119 118/118/118 117/117/117
f 117/117/117 118/118/118 120/120/120
f 123/123/123 122/122/122 121/121/121
f 121/121/121 122/122/122 124/124/124
f 127/127/127 126/126/126 125/125/125
f 125/125/125 126/126/126 128/128/128
f 131/131/131 130/130/130 129/129/129
f 129/129/129 130/130/130 132/132/132
f 135/135/135 134/134/134 133/133/133
f 133/133/133 134/134/134 136/136/136
f 139/139/139 138/138/138 137/137/137
f 137/137/137 138/138/138 140/140/140
f 143/143/143 142/142/142 141/141/141
f 141/141/141 142/142/142 144/144/144
f 147/147/147 146/146/146 145/145/145
f 145/145/145 146/146/146 148/148/148
f 151/151/151 150/150/150 149/149/149
f 149/149/149 150/150/150 152/152/152
f 155/155/155 154/154/154 153/153/153
f 153/153/153 154/154/154 156/156/156
f 156/156/156 157/157/157 153/153/153
f 153/153/153 157/157/157 158/158/158
f 157/157/157 159/159/159 158/158/158
f 158/158/158 159/159/159 160/160/160
f 159/159/159 161/161/161 160/160/160
f 160/160/160 161/161/161 162/162/162
f 161/161/161 163/163/163 162/162/162
f 162/162/162 163/163/163 164/164/164
f 163/163/163 165/165/165 164/164/164
f 164/164/164 165/165/165 166/166/166
f 165/165/165 167/167/167 166/166/166
f 166/166/166 167/167/167 168/168/168
f 167/167/167 169/169/169 168/168/168
f 168/168/168 169/169/169 170/170/170
f 169/169/169 171/171/171 170/170/170
f 170/170/170 171/171/171 172/172/172
f 171/171/171 173/173/173 172/172/172
f 172/172/172 173/173/173 174/174/174
f 173/173/173 175/175/175 174/174/174
f 174/174/174 175/175/175 176/176/176
f 175/175/175 177/177/177 176/176/176
f 176/176/176 177/177/177 178/178/178
f 181/181/181 180/180/180 179/179/179
f 179/179/179 182/182/182 181/181/181
f 182/182/182 183/183/183 181/181/181
f 184/184/184 180/180/180 181/181/181
f 183/183/183 184/184/184 181/181/181
f 185/185/185 180/180/180 184/184/184
f 186/186/186 184/184/184 183/183/183
f 186/186/186 185/185/185 184/184/184
f 189/189/189 188/188/188 187/187/187
f 190/190/190 189/189/189 187/187/187
f 190/190/190 187/187/187 191/191/191
f 187/187/187 188/188/188 192/192/192
f 191/191/191 187/187/187 192/192/192
f 192/192/192 188/188/188 193/193/193
f 194/194/194 191/191/191 192/192/192
f 193/193/193 194/194/194 192/192/192
f 197/197/197 196/196/196 195/195/195
f 198/198/198 197/197/197 195/195/195
f 198/198/198 195/195/195 199/199/199
f 195/195/195 196/196/196 200/200/200
f 199/199/199 195/195/195 200/200/200
f 200/200/200 196/196/196 201/201/201
f 202/202/202 199/199/199 200/200/200
f 201/201/201 202/202/202 200/200/200
f 205/205/205 204/204/204 203/203/203
f 206/206/206 205/205/205 203/203/203
f 206/206/206 203/203/203 207/207/207
f 203/203/203 204/204/204 208/208/208
f 207/207/207 203/203/203 208/208/208
f 208/208/208 204/204/204 209/209/209
f 210/210/210 207/207/207 208/208/208
f 209/209/209 210/210/210 208/208/208
f 213/213/213 212/212/212 211/211/211
f 214/214/214 213/213/213 211/211/211
f 214/214/214 211/211/211 215/215/215
f 211/211/211 212/212/212 216/216/216
f 215/215/215 211/211/211 216/216/216
f 216/216/216 212/212/212 217/217/217
f 218/218/218 215/215/215 216/216/216
f 217/217/217 218/218/218 216/216/216
f 221/221/221 220/220/220 219/219/219
f 222/222/222 221/221/221 219/219/219
f 222/222/222 219/219/219 223/223/223
f 219/219/219 220/220/220 224/224/224
f 223/223/223 219/219/219 224/224/224
f 224/224/224 220/220/220 225/225/225
f 226/226/226 223/223/223 224/224/224
f 225/225/225 226/226/226 224/224/224
