g polySurface2
v -1.895995 -0.006781044 -0.04794933
v -1.913369 -0.009263039 -0.1134494
v -1.922146 0.8228178 -0.1134494
v -1.90472 0.8207297 -0.04794931
v -1.848527 0 0
v -1.90472 0.8207297 -0.1789494
v -1.895995 -0.006781006 -0.1789494
v -1.857111 0.8150246 2.861023E-08
v -1.783686 0.009263115 0.0175507
v -1.857111 0.8150246 -0.2268987
v -1.848527 7.629394E-08 -0.2268987
v -1.792077 0.8072312 0.01755074
v -1.718844 0.01852619 5.722046E-08
v -1.792077 0.8072312 -0.2444493
v -1.783685 0.009263153 -0.2444493
v -1.727042 0.7994378 7.629394E-08
v -1.671376 0.02530727 -0.04794925
v -1.727042 0.7994378 -0.2268986
v -1.718844 0.01852627 -0.2268986
v -1.679433 0.7937328 -0.04794922
v -1.654002 0.02778935 -0.1134492
v -1.679433 0.7937328 -0.1789492
v -1.671376 0.02530731 -0.1789492
v -1.662007 0.7916446 -0.1134492
v -1.704982 1.135356 -0.2444493
v -1.645031 1.108972 -0.2268986
v -1.601144 1.089657 -0.1789492
v -1.58508 1.082587 -0.1134492
v -1.601144 1.089657 -0.04794921
v -1.645031 1.108972 6.67572E-08
v -1.764933 1.16174 -0.2268987
v -1.704982 1.135356 0.01755072
v -1.80882 1.181055 -0.1789494
v -1.764933 1.16174 3.814697E-08
v -1.824884 1.188125 -0.1134494
v -1.80882 1.181055 -0.0479493
v -1.492478 1.347121 1.049042E-07
v -1.541498 1.390564 0.01755076
v -1.590518 1.434008 3.814697E-08
v -1.626403 1.46581 -0.04794929
v -1.639538 1.477451 -0.1134494
v -1.626403 1.46581 -0.1789494
v -1.456593 1.315319 -0.0479492
v -1.590518 1.434008 -0.2268987
v -1.443458 1.303678 -0.1134492
v -1.541498 1.390564 -0.2444493
v -1.456593 1.315319 -0.1789492
v -1.492478 1.347121 -0.2268986
v -1.379529 1.669875 -0.1789494
v -1.354674 1.62887 -0.2268987
v -1.320722 1.572856 -0.2444493
v -1.286771 1.516842 -0.2268986
v -1.261917 1.475837 -0.1789492
v -1.252819 1.460829 -0.1134492
v -1.388626 1.684884 -0.1134494
v -1.261917 1.475837 -0.0479492
v -1.379529 1.669875 -0.04794929
v -1.286771 1.516842 9.536743E-08
v -1.354674 1.62887 4.768371E-08
v -1.320723 1.572856 0.01755073
v -1.079608 1.54563 -0.1134492
v -1.085081 1.562193 -0.0479492
v -1.100032 1.607443 9.536743E-08
v -1.120455 1.669256 0.01755074
v -1.140878 1.731068 5.722046E-08
v -1.155829 1.776318 -0.04794928
v -1.085081 1.562193 -0.1789492
v -1.161302 1.792881 -0.1134494
v -1.100032 1.607443 -0.2268986
v -1.155829 1.776318 -0.1789494
v -1.120455 1.669255 -0.2444493
v -1.140878 1.731068 -0.2268987
v -0.9242637 1.799929 -0.04794927
v -0.9242637 1.81748 -0.1134494
v -0.9242637 1.799929 -0.1789494
v -0.9242637 1.75198 -0.2268987
v -0.9242637 1.68648 -0.2444493
v -0.9242637 1.62098 -0.2268985
v -0.9242637 1.75198 5.722046E-08
v -0.9242637 1.57303 -0.1789492
v -0.9242637 1.68648 0.01755074
v -0.9242637 1.55548 -0.1134492
v -0.9242637 1.62098 1.144409E-07
v -0.9242637 1.573031 -0.04794919
v -0.7280724 1.669255 -0.2444493
v -0.7484958 1.607443 -0.2268986
v -0.7634466 1.562193 -0.1789492
v -0.7689191 1.54563 -0.1134492
v -0.7634466 1.562193 -0.0479492
v -0.7484957 1.607443 9.536743E-08
v -0.7076491 1.731068 -0.2268987
v -0.7280723 1.669256 0.01755074
v -0.6926981 1.776318 -0.1789494
v -0.707649 1.731068 5.722046E-08
v -0.6872257 1.792881 -0.1134494
v -0.6926981 1.776318 -0.04794928
v -0.4938532 1.62887 -0.2268987
v -0.4689988 1.669875 -0.1789494
v -0.4599015 1.684884 -0.1134494
v -0.4689988 1.669875 -0.04794929
v -0.4938531 1.62887 4.768371E-08
v -0.5278047 1.572856 0.01755073
v -0.5278048 1.572856 -0.2444493
v -0.5617564 1.516842 9.536743E-08
v -0.5617565 1.516842 -0.2268986
v -0.5866107 1.475837 -0.0479492
v -0.5866107 1.475837 -0.1789492
v -0.595708 1.460829 -0.1134492
v -0.3070292 1.390564 0.01755076
v -0.3560491 1.347121 1.049042E-07
v -0.391934 1.315319 -0.0479492
v -0.405069 1.303678 -0.1134492
v -0.3919342 1.315319 -0.1789492
v -0.3560492 1.347121 -0.2268986
v -0.2580095 1.434008 3.814697E-08
v -0.3070295 1.390564 -0.2444493
v -0.2221245 1.46581 -0.04794929
v -0.2580096 1.434008 -0.2268987
v -0.2089897 1.477451 -0.1134494
v -0.2221246 1.46581 -0.1789494
v -0.2034966 1.108972 -0.2268986
v -0.1435457 1.135356 -0.2444493
v -0.08359474 1.16174 -0.2268987
v -0.03970756 1.181055 -0.1789494
v -0.02364365 1.188125 -0.1134494
v -0.03970749 1.181055 -0.0479493
v -0.2473836 1.089657 -0.1789492
v -0.08359459 1.16174 3.814697E-08
v -0.2634474 1.082587 -0.1134492
v -0.1435454 1.135356 0.01755072
v -0.2473836 1.089657 -0.04794921
v -0.2034964 1.108972 6.67572E-08
v 0.05619286 0.8207297 -0.04794931
v 0.008584137 0.8150246 2.861023E-08
v -0.05645065 0.8072312 0.01755074
v -0.1214853 0.7994378 7.629394E-08
v -0.1690941 0.7937328 -0.04794922
v -0.1865202 0.7916446 -0.1134492
v 0.07361885 0.8228178 -0.1134494
v -0.1690941 0.7937328 -0.1789492
v 0.0561927 0.8207297 -0.1789494
v -0.1214855 0.7994378 -0.2268986
v 0.008583984 0.8150246 -0.2268987
v -0.05645073 0.8072312 -0.2444493
v -0.1945251 0.02778935 -0.1134492
v -0.1771509 0.02530727 -0.04794925
v -0.177151 0.02530731 -0.1789492
v -0.1296836 0.01852627 -0.2268986
v -0.1296834 0.01852619 5.722046E-08
v -0.06484192 0.009263153 -0.2444493
v -1.525879E-07 7.629394E-08 -0.2268987
v -0.06484176 0.009263115 0.0175507
v 0.04746734 -0.006781006 -0.1789494
v 0 0 0
v 0.06484161 -0.009263039 -0.1134494
v 0.04746734 -0.006781044 -0.04794933
vn -0.8730469 -0.00920105 0.487793
vn -1 -0.01054382 0
vn -0.9921875 0.1243896 0
vn -0.8647461 0.1084595 0.4904785
vn -0.519043 -0.005470276 0.8544922
vn -0.8647461 0.1084595 -0.4904785
vn -0.8730469 -0.00920105 -0.487793
vn -0.5126953 0.06433105 0.8564453
vn -0.02182007 -0.0002318621 1
vn -0.5126953 0.06433105 -0.8564453
vn -0.519043 -0.005470276 -0.8544922
vn -0.02204895 0.002906799 0.9995117
vn 0.4865723 0.00510788 0.8735352
vn -0.02204895 0.002906799 -0.9995117
vn -0.02182007 -0.0002317429 -1
vn 0.4794922 -0.05987549 0.8754883
vn 0.8623047 0.009040833 0.5063477
vn 0.4794922 -0.05987549 -0.8754883
vn 0.4865723 0.00510788 -0.8735352
vn 0.8540039 -0.1065674 0.5097656
vn 1 0.01048279 0
vn 0.8540039 -0.1065674 -0.5097656
vn 0.8623047 0.009040833 -0.5063477
vn 0.9921875 -0.1238403 0
vn -0.02336121 0.01031494 -0.9995117
vn 0.4394531 -0.1933594 -0.8769531
vn 0.7866211 -0.3457031 -0.5117188
vn 0.9155273 -0.4023438 0
vn 0.7866211 -0.3457031 0.5117188
vn 0.4394531 -0.1933594 0.8769531
vn -0.4746094 0.2089844 -0.8549805
vn -0.02336121 0.01031494 0.9995117
vn -0.7978516 0.3515625 -0.489502
vn -0.4746094 0.2089844 0.8549805
vn -0.9150391 0.4030762 0
vn -0.7978516 0.3515625 0.489502
vn 0.359375 -0.3186035 0.8769531
vn -0.01916504 0.01695251 0.9995117
vn -0.3881836 0.34375 0.8549805
vn -0.652832 0.578125 0.489502
vn -0.7485352 0.6630859 0
vn -0.652832 0.578125 -0.489502
vn 0.6430664 -0.5703125 0.5117188
vn -0.3881836 0.34375 -0.8549805
vn 0.7480469 -0.6635742 0
vn -0.01916504 0.01695251 -0.9995117
vn 0.6430664 -0.5703125 -0.5117188
vn 0.359375 -0.3186035 -0.8769531
vn -0.4682617 0.7348633 -0.4904785
vn -0.277832 0.4345703 -0.8569336
vn -0.01101685 0.01661682 -1
vn 0.2624512 -0.4091797 -0.8740234
vn 0.4665527 -0.7246094 -0.5073242
vn 0.5419922 -0.840332 0
vn -0.5371094 0.84375 0
vn 0.4665527 -0.7246094 0.5073242
vn -0.4682617 0.7348633 0.4904785
vn 0.2624512 -0.4091797 0.8740234
vn -0.277832 0.4345703 0.8569336
vn -0.01101685 0.01661682 1
vn 0.2553711 -0.9667969 0
vn 0.2202148 -0.828125 0.515625
vn 0.1244507 -0.4584961 0.8798828
vn -0.006832123 0.02900696 0.9995117
vn -0.1386719 0.5014648 0.8540039
vn -0.2354736 0.8398438 0.4887695
vn 0.2202148 -0.828125 -0.515625
vn -0.2709961 0.9624023 0
vn 0.1244507 -0.4584961 -0.8798828
vn -0.2354736 0.8398438 -0.4887695
vn -0.006832123 0.02900696 -0.9995117
vn -0.1386719 0.5014648 -0.8540039
vn 0 0.8725586 0.4887695
vn 0 1 0
vn 0 0.8725586 -0.4887695
vn 0 0.5161133 -0.8564453
vn 0 0.01443481 -1
vn 0 -0.4956055 -0.8686523
vn 0 0.5161133 0.8564453
vn 0 -0.8666992 -0.4992676
vn 0 0.01443481 1
vn 0 -1 0
vn 0 -0.4956055 0.8686523
vn 0 -0.8666992 0.4992676
vn 0.006832123 0.02900696 -0.9995117
vn -0.1244507 -0.4584961 -0.8798828
vn -0.2202148 -0.828125 -0.515625
vn -0.2553711 -0.9667969 0
vn -0.2202148 -0.828125 0.515625
vn -0.1244507 -0.4584961 0.8798828
vn 0.1386719 0.5014648 -0.8540039
vn 0.006832123 0.02900696 0.9995117
vn 0.2354736 0.8398438 -0.4887695
vn 0.1386719 0.5014648 0.8540039
vn 0.2709961 0.9624023 0
vn 0.2354736 0.8398438 0.4887695
vn 0.277832 0.4345703 -0.8569336
vn 0.4682617 0.7348633 -0.4904785
vn 0.5371094 0.84375 0
vn 0.4682617 0.7348633 0.4904785
vn 0.277832 0.4345703 0.8569336
vn 0.01101685 0.01661682 1
vn 0.01101685 0.01661682 -1
vn -0.2624512 -0.4091797 0.8740234
vn -0.2624512 -0.4091797 -0.8740234
vn -0.4665527 -0.7246094 0.5073242
vn -0.4665527 -0.7246094 -0.5073242
vn -0.5419922 -0.840332 0
vn 0.01916504 0.01695251 0.9995117
vn -0.359375 -0.3186035 0.8769531
vn -0.6430664 -0.5703125 0.5117188
vn -0.7480469 -0.6635742 0
vn -0.6430664 -0.5703125 -0.5117188
vn -0.359375 -0.3186035 -0.8769531
vn 0.3881836 0.34375 0.8549805
vn 0.01916504 0.01695251 -0.9995117
vn 0.652832 0.578125 0.489502
vn 0.3881836 0.34375 -0.8549805
vn 0.7485352 0.6630859 0
vn 0.652832 0.578125 -0.489502
vn -0.4394531 -0.1933594 -0.8769531
vn 0.02336121 0.01031494 -0.9995117
vn 0.4746094 0.2089844 -0.8549805
vn 0.7978516 0.3515625 -0.489502
vn 0.9150391 0.4030762 0
vn 0.7978516 0.3515625 0.489502
vn -0.7866211 -0.3457031 -0.5117188
vn 0.4746094 0.2089844 0.8549805
vn -0.9155273 -0.4023438 0
vn 0.02336121 0.01031494 0.9995117
vn -0.7866211 -0.3457031 0.5117188
vn -0.4394531 -0.1933594 0.8769531
vn 0.8647461 0.1084595 0.4904785
vn 0.5126953 0.06433105 0.8564453
vn 0.02204895 0.002906799 0.9995117
vn -0.4794922 -0.05987549 0.8754883
vn -0.8540039 -0.1065674 0.5097656
vn -0.9921875 -0.1238403 0
vn 0.9921875 0.1243896 0
vn -0.8540039 -0.1065674 -0.5097656
vn 0.8647461 0.1084595 -0.4904785
vn -0.4794922 -0.05987549 -0.8754883
vn 0.5126953 0.06433105 -0.8564453
vn 0.02204895 0.002906799 -0.9995117
vn -1 0.01048279 0
vn -0.8623047 0.009040833 0.5063477
vn -0.8623047 0.009040833 -0.5063477
vn -0.4865723 0.00510788 -0.8735352
vn -0.4865723 0.00510788 0.8735352
vn 0.02182007 -0.0002317429 -1
vn 0.519043 -0.005470276 -0.8544922
vn 0.02182007 -0.0002318621 1
vn 0.8730469 -0.00920105 -0.487793
vn 0.519043 -0.005470276 0.8544922
vn 1 -0.01054382 0
vn 0.8730469 -0.00920105 0.487793
g polySurface2_0
f 3/3/3 2/2/2 1/1/1
f 4/4/4 3/3/3 1/1/1
f 4/4/4 1/1/1 5/5/5
f 3/3/3 6/6/6 2/2/2
f 6/6/6 7/7/7 2/2/2
f 8/8/8 4/4/4 5/5/5
f 8/8/8 5/5/5 9/9/9
f 6/6/6 10/10/10 7/7/7
f 10/10/10 11/11/11 7/7/7
f 12/12/12 8/8/8 9/9/9
f 12/12/12 9/9/9 13/13/13
f 10/10/10 14/14/14 11/11/11
f 14/14/14 15/15/15 11/11/11
f 16/16/16 12/12/12 13/13/13
f 16/16/16 13/13/13 17/17/17
f 14/14/14 18/18/18 15/15/15
f 18/18/18 19/19/19 15/15/15
f 20/20/20 16/16/16 17/17/17
f 20/20/20 17/17/17 21/21/21
f 18/18/18 22/22/22 19/19/19
f 22/22/22 23/23/23 19/19/19
f 24/24/24 21/21/21 23/23/23
f 24/24/24 20/20/20 21/21/21
f 22/22/22 24/24/24 23/23/23
f 25/25/25 14/14/14 10/10/10
f 26/26/26 18/18/18 14/14/14
f 25/25/25 26/26/26 14/14/14
f 27/27/27 22/22/22 18/18/18
f 26/26/26 27/27/27 18/18/18
f 28/28/28 24/24/24 22/22/22
f 27/27/27 28/28/28 22/22/22
f 29/29/29 20/20/20 24/24/24
f 28/28/28 29/29/29 24/24/24
f 30/30/30 16/16/16 20/20/20
f 29/29/29 30/30/30 20/20/20
f 31/31/31 25/25/25 10/10/10
f 31/31/31 10/10/10 6/6/6
f 30/30/30 32/32/32 16/16/16
f 32/32/32 12/12/12 16/16/16
f 33/33/33 31/31/31 6/6/6
f 33/33/33 6/6/6 3/3/3
f 32/32/32 34/34/34 12/12/12
f 34/34/34 8/8/8 12/12/12
f 35/35/35 33/33/33 3/3/3
f 35/35/35 3/3/3 4/4/4
f 36/36/36 4/4/4 8/8/8
f 34/34/34 36/36/36 8/8/8
f 36/36/36 35/35/35 4/4/4
f 37/37/37 30/30/30 29/29/29
f 38/38/38 32/32/32 30/30/30
f 37/37/37 38/38/38 30/30/30
f 39/39/39 34/34/34 32/32/32
f 38/38/38 39/39/39 32/32/32
f 40/40/40 36/36/36 34/34/34
f 39/39/39 40/40/40 34/34/34
f 41/41/41 35/35/35 36/36/36
f 40/40/40 41/41/41 36/36/36
f 42/42/42 33/33/33 35/35/35
f 41/41/41 42/42/42 35/35/35
f 43/43/43 37/37/37 29/29/29
f 43/43/43 29/29/29 28/28/28
f 42/42/42 44/44/44 33/33/33
f 44/44/44 31/31/31 33/33/33
f 45/45/45 43/43/43 28/28/28
f 45/45/45 28/28/28 27/27/27
f 44/44/44 46/46/46 31/31/31
f 46/46/46 25/25/25 31/31/31
f 47/47/47 45/45/45 27/27/27
f 47/47/47 27/27/27 26/26/26
f 48/48/48 26/26/26 25/25/25
f 46/46/46 48/48/48 25/25/25
f 48/48/48 47/47/47 26/26/26
f 49/49/49 42/42/42 41/41/41
f 50/50/50 44/44/44 42/42/42
f 49/49/49 50/50/50 42/42/42
f 51/51/51 46/46/46 44/44/44
f 50/50/50 51/51/51 44/44/44
f 52/52/52 48/48/48 46/46/46
f 51/51/51 52/52/52 46/46/46
f 53/53/53 47/47/47 48/48/48
f 52/52/52 53/53/53 48/48/48
f 54/54/54 45/45/45 47/47/47
f 53/53/53 54/54/54 47/47/47
f 55/55/55 49/49/49 41/41/41
f 55/55/55 41/41/41 40/40/40
f 54/54/54 56/56/56 45/45/45
f 56/56/56 43/43/43 45/45/45
f 57/57/57 55/55/55 40/40/40
f 57/57/57 40/40/40 39/39/39
f 56/56/56 58/58/58 43/43/43
f 58/58/58 37/37/37 43/43/43
f 59/59/59 57/57/57 39/39/39
f 59/59/59 39/39/39 38/38/38
f 60/60/60 38/38/38 37/37/37
f 58/58/58 60/60/60 37/37/37
f 60/60/60 59/59/59 38/38/38
f 61/61/61 54/54/54 53/53/53
f 62/62/62 56/56/56 54/54/54
f 61/61/61 62/62/62 54/54/54
f 63/63/63 58/58/58 56/56/56
f 62/62/62 63/63/63 56/56/56
f 64/64/64 60/60/60 58/58/58
f 63/63/63 64/64/64 58/58/58
f 65/65/65 59/59/59 60/60/60
f 64/64/64 65/65/65 60/60/60
f 66/66/66 57/57/57 59/59/59
f 65/65/65 66/66/66 59/59/59
f 67/67/67 61/61/61 53/53/53
f 67/67/67 53/53/53 52/52/52
f 66/66/66 68/68/68 57/57/57
f 68/68/68 55/55/55 57/57/57
f 69/69/69 67/67/67 52/52/52
f 69/69/69 52/52/52 51/51/51
f 68/68/68 70/70/70 55/55/55
f 70/70/70 49/49/49 55/55/55
f 71/71/71 69/69/69 51/51/51
f 71/71/71 51/51/51 50/50/50
f 72/72/72 50/50/50 49/49/49
f 70/70/70 72/72/72 49/49/49
f 72/72/72 71/71/71 50/50/50
f 73/73/73 66/66/66 65/65/65
f 74/74/74 68/68/68 66/66/66
f 73/73/73 74/74/74 66/66/66
f 75/75/75 70/70/70 68/68/68
f 74/74/74 75/75/75 68/68/68
f 76/76/76 72/72/72 70/70/70
f 75/75/75 76/76/76 70/70/70
f 77/77/77 71/71/71 72/72/72
f 76/76/76 77/77/77 72/72/72
f 78/78/78 69/69/69 71/71/71
f 77/77/77 78/78/78 71/71/71
f 79/79/79 73/73/73 65/65/65
f 79/79/79 65/65/65 64/64/64
f 78/78/78 80/80/80 69/69/69
f 80/80/80 67/67/67 69/69/69
f 81/81/81 79/79/79 64/64/64
f 81/81/81 64/64/64 63/63/63
f 80/80/80 82/82/82 67/67/67
f 82/82/82 61/61/61 67/67/67
f 83/83/83 81/81/81 63/63/63
f 83/83/83 63/63/63 62/62/62
f 84/84/84 62/62/62 61/61/61
f 82/82/82 84/84/84 61/61/61
f 84/84/84 83/83/83 62/62/62
f 78/78/78 77/77/77 85/85/85
f 80/80/80 78/78/78 86/86/86
f 86/86/86 78/78/78 85/85/85
f 82/82/82 80/80/80 87/87/87
f 87/87/87 80/80/80 86/86/86
f 84/84/84 82/82/82 88/88/88
f 88/88/88 82/82/82 87/87/87
f 83/83/83 84/84/84 89/89/89
f 89/89/89 84/84/84 88/88/88
f 81/81/81 83/83/83 90/90/90
f 90/90/90 83/83/83 89/89/89
f 85/85/85 77/77/77 91/91/91
f 77/77/77 76/76/76 91/91/91
f 92/92/92 81/81/81 90/90/90
f 79/79/79 81/81/81 92/92/92
f 91/91/91 76/76/76 93/93/93
f 76/76/76 75/75/75 93/93/93
f 94/94/94 79/79/79 92/92/92
f 73/73/73 79/79/79 94/94/94
f 93/93/93 75/75/75 95/95/95
f 75/75/75 74/74/74 95/95/95
f 74/74/74 73/73/73 96/96/96
f 96/96/96 73/73/73 94/94/94
f 95/95/95 74/74/74 96/96/96
f 85/85/85 91/91/91 97/97/97
f 91/91/91 93/93/93 98/98/98
f 97/97/97 91/91/91 98/98/98
f 93/93/93 95/95/95 99/99/99
f 98/98/98 93/93/93 99/99/99
f 95/95/95 96/96/96 100/100/100
f 99/99/99 95/95/95 100/100/100
f 96/96/96 94/94/94 101/101/101
f 100/100/100 96/96/96 101/101/101
f 94/94/94 92/92/92 102/102/102
f 101/101/101 94/94/94 102/102/102
f 103/103/103 85/85/85 97/97/97
f 86/86/86 85/85/85 103/103/103
f 102/102/102 92/92/92 104/104/104
f 92/92/92 90/90/90 104/104/104
f 105/105/105 86/86/86 103/103/103
f 87/87/87 86/86/86 105/105/105
f 104/104/104 90/90/90 106/106/106
f 90/90/90 89/89/89 106/106/106
f 107/107/107 87/87/87 105/105/105
f 88/88/88 87/87/87 107/107/107
f 89/89/89 88/88/88 108/108/108
f 106/106/106 89/89/89 108/108/108
f 108/108/108 88/88/88 107/107/107
f 101/101/101 102/102/102 109/109/109
f 102/102/102 104/104/104 110/110/110
f 109/109/109 102/102/102 110/110/110
f 104/104/104 106/106/106 111/111/111
f 110/110/110 104/104/104 111/111/111
f 106/106/106 108/108/108 112/112/112
f 111/111/111 106/106/106 112/112/112
f 108/108/108 107/107/107 113/113/113
f 112/112/112 108/108/108 113/113/113
f 107/107/107 105/105/105 114/114/114
f 113/113/113 107/107/107 114/114/114
f 115/115/115 101/101/101 109/109/109
f 100/100/100 101/101/101 115/115/115
f 114/114/114 105/105/105 116/116/116
f 105/105/105 103/103/103 116/116/116
f 117/117/117 100/100/100 115/115/115
f 99/99/99 100/100/100 117/117/117
f 116/116/116 103/103/103 118/118/118
f 103/103/103 97/97/97 118/118/118
f 119/119/119 99/99/99 117/117/117
f 98/98/98 99/99/99 119/119/119
f 97/97/97 98/98/98 120/120/120
f 118/118/118 97/97/97 120/120/120
f 120/120/120 98/98/98 119/119/119
f 113/113/113 114/114/114 121/121/121
f 114/114/114 116/116/116 122/122/122
f 121/121/121 114/114/114 122/122/122
f 116/116/116 118/118/118 123/123/123
f 122/122/122 116/116/116 123/123/123
f 118/118/118 120/120/120 124/124/124
f 123/123/123 118/118/118 124/124/124
f 120/120/120 119/119/119 125/125/125
f 124/124/124 120/120/120 125/125/125
f 119/119/119 117/117/117 126/126/126
f 125/125/125 119/119/119 126/126/126
f 127/127/127 113/113/113 121/121/121
f 112/112/112 113/113/113 127/127/127
f 126/126/126 117/117/117 128/128/128
f 117/117/117 115/115/115 128/128/128
f 129/129/129 112/112/112 127/127/127
f 111/111/111 112/112/112 129/129/129
f 128/128/128 115/115/115 130/130/130
f 115/115/115 109/109/109 130/130/130
f 131/131/131 111/111/111 129/129/129
f 110/110/110 111/111/111 131/131/131
f 109/109/109 110/110/110 132/132/132
f 130/130/130 109/109/109 132/132/132
f 132/132/132 110/110/110 131/131/131
f 125/125/125 126/126/126 133/133/133
f 126/126/126 128/128/128 134/134/134
f 133/133/133 126/126/126 134/134/134
f 128/128/128 130/130/130 135/135/135
f 134/134/134 128/128/128 135/135/135
f 130/130/130 132/132/132 136/136/136
f 135/135/135 130/130/130 136/136/136
f 132/132/132 131/131/131 137/137/137
f 136/136/136 132/132/132 137/137/137
f 131/131/131 129/129/129 138/138/138
f 137/137/137 131/131/131 138/138/138
f 139/139/139 125/125/125 133/133/133
f 124/124/124 125/125/125 139/139/139
f 138/138/138 129/129/129 140/140/140
f 129/129/129 127/127/127 140/140/140
f 141/141/141 124/124/124 139/139/139
f 123/123/123 124/124/124 141/141/141
f 140/140/140 127/127/127 142/142/142
f 127/127/127 121/121/121 142/142/142
f 143/143/143 123/123/123 141/141/141
f 122/122/122 123/123/123 143/143/143
f 121/121/121 122/122/122 144/144/144
f 142/142/142 121/121/121 144/144/144
f 144/144/144 122/122/122 143/143/143
f 137/137/137 138/138/138 145/145/145
f 146/146/146 137/137/137 145/145/145
f 145/145/145 138/138/138 147/147/147
f 138/138/138 140/140/140 147/147/147
f 136/136/136 137/137/137 146/146/146
f 147/147/147 140/140/140 148/148/148
f 140/140/140 142/142/142 148/148/148
f 149/149/149 136/136/136 146/146/146
f 148/148/148 142/142/142 150/150/150
f 142/142/142 144/144/144 150/150/150
f 135/135/135 136/136/136 149/149/149
f 150/150/150 144/144/144 151/151/151
f 144/144/144 143/143/143 151/151/151
f 152/152/152 135/135/135 149/149/149
f 151/151/151 143/143/143 153/153/153
f 134/134/134 135/135/135 152/152/152
f 143/143/143 141/141/141 153/153/153
f 154/154/154 134/134/134 152/152/152
f 153/153/153 141/141/141 155/155/155
f 133/133/133 134/134/134 154/154/154
f 141/141/141 139/139/139 155/155/155
f 156/156/156 133/133/133 154/154/154
f 155/155/155 139/139/139 156/156/156
f 139/139/139 133/133/133 156/156/156
